<svg width="27" height="27" fill="none" xmlns="http://www.w3.org/2000/svg"><path fill-rule="evenodd" clip-rule="evenodd" d="m12.1211 4.89868 1-4.035399 1.2082 4.198939-2.2082-.16354Zm3.0137.13309 2.2593-3.48998-.2246 4.36354-2.0347-.87356Zm6.0802-1.46022-3.2725 2.56428 1.6394 1.4884 1.6331-4.05268Zm-.9747 4.52003 3.929-1.35916-2.8635 3.30018-1.0655-1.94102Zm5.6963 2.59002-4.1574.0059.3755 2.1823 3.7819-2.1882Zm-3.5442 2.9612 3.9329 1.3479-4.2882.8377.3553-2.1856Zm2.9008 5.5496-3.2798-2.5549-1.0476 1.9509 4.3274.604Zm-4.6104.1551 2.2693 3.4835-3.895-1.98 1.6257-1.5035Zm-1.1268 6.1643-1.0116-4.0325-2.0266.8923 3.0382 3.1402Zm-3.7264-2.7099-.3564 4.1421-1.8503-3.9582 2.2067-.1839Zm-4.6466 4.1747 1.6189-3.8293-2.1555-.5069.5366 4.3362ZM9.85582 22.516l-2.77745 3.0936.90446-4.2747 1.87299 1.1811Zm-6.21541.4673 3.63331-2.0208-1.38643-1.7265-2.24688 3.7473Zm1.69484-4.3284-4.09326.7278 3.34448-2.8117.74878 2.0839ZM.143265 15.1982l4.107195.6444-.02954-2.2141-4.077655 1.5697Zm3.993755-2.368L.463412 10.8836l4.366508-.1565-.6929 2.1031ZM2.16773 6.90707l2.83973 3.03651 1.33986-1.76293-4.17959-1.27358Zm4.60009.58829-1.69643-3.7956 3.53724 2.56493-1.84081 1.23067Zm2.09164-5.88577.36828 4.14112 2.14116-.56432-2.50944-3.5768Z" fill="#929292"/><circle cx="13" cy="14" r="9" stroke="#929292"/><path d="m7.69971 22.3979 5.07109-7.8249-4.42412-8.17505M12.9126 14.7153h9.3447" stroke="#979797"/></svg>